<svg width="36" height="36" viewBox="0 0 36 36" fill="none" xmlns="http://www.w3.org/2000/svg">
<path d="M20.25 21.375H27V23.625H20.25V21.375ZM20.25 16.875H33.75V19.125H20.25V16.875ZM20.25 12.375H33.75V14.625H20.25V12.375ZM15.75 23.625V21.375H10.125V19.125H7.875V21.375H2.25V23.625H11.4919C11.0784 25.3134 10.2171 26.8591 8.99888 28.0991C8.36027 27.433 7.81287 26.6851 7.371 25.875H4.87463C5.44642 27.248 6.26421 28.505 7.28775 29.5841C6.08183 30.4429 4.76575 31.1354 3.375 31.6429L4.16475 33.75C5.89553 33.1195 7.52228 32.2337 8.991 31.122C10.4662 32.2344 12.0994 33.1202 13.8364 33.75L14.625 31.6429C13.2349 31.1363 11.9192 30.4449 10.7134 29.5875C12.3014 27.9456 13.3694 25.8714 13.7835 23.625H15.75ZM12.5629 14.625H14.9996L9.84375 2.25H7.40588L2.25 14.625H4.68675L5.625 12.375H11.6246L12.5629 14.625ZM6.56213 10.125L8.62425 5.175L10.6875 10.125H6.56213Z" fill="#F8F8F8"/>
</svg>
