<svg width="36" height="36" viewBox="0 0 36 36" fill="none" xmlns="http://www.w3.org/2000/svg">
<path d="M18 33C26.2843 33 33 26.2843 33 18C33 9.71573 26.2843 3 18 3C9.71573 3 3 9.71573 3 18C3 26.2843 9.71573 33 18 33Z" stroke="white" stroke-width="2" stroke-linecap="round" stroke-linejoin="round"/>
<path d="M13.6367 13.4999C13.9894 12.4974 14.6854 11.652 15.6017 11.1136C16.5179 10.5751 17.5951 10.3783 18.6425 10.5579C19.6899 10.7376 20.6399 11.2822 21.3243 12.0952C22.0087 12.9082 22.3833 13.9372 22.3817 14.9999C22.3817 17.9999 17.8817 19.4999 17.8817 19.4999" stroke="#FF7643" stroke-width="2" stroke-linecap="round" stroke-linejoin="round"/>
<path d="M18 25.5H18.015" stroke="#FF7643" stroke-width="2" stroke-linecap="round" stroke-linejoin="round"/>
</svg>
