<svg width="36" height="36" viewBox="0 0 36 36" fill="none" xmlns="http://www.w3.org/2000/svg">
<path d="M31.4994 3L28.4994 6M28.4994 6L32.9994 10.5L27.7494 15.75L23.2494 11.25M28.4994 6L23.2494 11.25M17.0844 17.415C17.8589 18.1792 18.4746 19.0891 18.8961 20.0922C19.3175 21.0953 19.5363 22.1719 19.54 23.2599C19.5436 24.348 19.332 25.426 18.9173 26.432C18.5026 27.4379 17.893 28.3518 17.1237 29.1212C16.3543 29.8906 15.4403 30.5002 14.4344 30.9149C13.4285 31.3296 12.3504 31.5412 11.2624 31.5375C10.1743 31.5339 9.09775 31.3151 8.09462 30.8936C7.09149 30.4722 6.18164 29.8565 5.41744 29.082C3.91463 27.526 3.08308 25.4421 3.10187 23.2789C3.12067 21.1158 3.98831 19.0466 5.51793 17.517C7.04755 15.9874 9.11675 15.1197 11.2799 15.1009C13.443 15.0821 15.527 15.9137 17.0829 17.4165L17.0844 17.415ZM17.0844 17.415L23.2494 11.25" stroke="#FF7643" stroke-width="2" stroke-linecap="round" stroke-linejoin="round"/>
</svg>
