<svg width="36" height="36" viewBox="0 0 36 36" fill="none" xmlns="http://www.w3.org/2000/svg">
<g clip-path="url(#clip0_676_4328)">
<path d="M1.34375 34.6598C1.35997 33.0592 1.78199 31.4887 2.57032 30.0956C3.39968 28.646 4.59493 27.4395 6.03664 26.5966C7.47835 25.7536 9.11603 25.3039 10.786 25.2921C14.1546 25.2998 17.3432 27.1616 19.0017 30.0956C19.7897 31.488 20.2117 33.0575 20.2283 34.6573M25.4226 3.55584V1.44727M32.62 6.14527L34.3455 4.93412M18.22 6.14527L16.492 4.93412M10.7835 20.8127C11.4207 20.8275 12.0545 20.7147 12.6476 20.4811C13.2406 20.2474 13.781 19.8976 14.2369 19.4521C14.6928 19.0066 15.0551 18.4745 15.3025 17.887C15.5498 17.2995 15.6772 16.6685 15.6772 16.0311C15.6772 15.3937 15.5498 14.7627 15.3025 14.1752C15.0551 13.5877 14.6928 13.0556 14.2369 12.6102C13.781 12.1647 13.2406 11.8148 12.6476 11.5812C12.0545 11.3475 11.4207 11.2348 10.7835 11.2496C9.53451 11.2785 8.34646 11.795 7.47338 12.6886C6.6003 13.5821 6.1115 14.7818 6.1115 16.0311C6.1115 17.2804 6.6003 18.4801 7.47338 19.3737C8.34646 20.2672 9.53451 20.7837 10.7835 20.8127ZM30.6503 13.0058C30.646 12.3099 30.5042 11.6217 30.2331 10.9808C29.9621 10.3398 29.5671 9.75869 29.0708 9.27079C28.5746 8.7829 27.9868 8.39784 27.3413 8.13771C26.6959 7.87758 26.0054 7.74752 25.3095 7.75498C24.6138 7.77655 23.9293 7.93533 23.2953 8.22218C22.6612 8.50903 22.09 8.9183 21.6145 9.42651C21.139 9.93472 20.7686 10.5318 20.5246 11.1836C20.2805 11.8354 20.1676 12.5289 20.1923 13.2244C20.2428 14.1546 20.5368 15.0552 21.045 15.836C21.5532 16.6168 22.2576 17.2502 23.0878 17.673V20.2444C23.0924 20.3956 23.1556 20.5391 23.264 20.6447C23.3724 20.7502 23.5176 20.8095 23.6689 20.8101H27.1686C27.3203 20.8102 27.4662 20.7512 27.5751 20.6456C27.6841 20.54 27.7476 20.3961 27.7523 20.2444V17.6267C28.6077 17.1898 29.329 16.5297 29.8397 15.7161C30.3503 14.9026 30.6287 13.9661 30.6503 13.0058Z" stroke="#F8F8F8" stroke-width="1.71429" stroke-linecap="round" stroke-linejoin="round"/>
</g>
<defs>
<clipPath id="clip0_676_4328">
<rect width="36" height="36" fill="white"/>
</clipPath>
</defs>
</svg>
